<svg version="1.1" id="Layer_1" xmlns="http://www.w3.org/2000/svg" xmlns:xlink="http://www.w3.org/1999/xlink" x="0px" y="0px"
	 width="100%" viewBox="0 0 384 384" enable-background="new 0 0 384 384" xml:space="preserve">
<path fill="#000000" opacity="1.000000" stroke="none" 
	d="
M244.056046,149.381134 
	C234.290283,136.791580 222.379089,127.779419 207.625549,122.618042 
	C203.009888,121.003296 198.576904,120.145088 193.602005,121.837440 
	C179.007553,126.802162 166.647614,134.846283 157.226685,147.109390 
	C154.986191,150.025803 152.701340,151.197083 148.446167,149.146149 
	C157.508087,135.766113 168.937469,125.870605 183.437195,119.384262 
	C178.747818,118.274696 170.074097,119.231499 161.849274,121.893112 
	C147.207062,126.631470 134.830292,134.755890 125.375160,146.991943 
	C123.142784,149.880905 120.882561,151.232407 117.420593,149.628036 
	C116.926643,147.785156 118.123055,146.698074 119.014389,145.552292 
	C137.509262,121.777885 161.582169,110.673088 191.806763,113.494766 
	C197.286758,114.006371 202.761749,113.797829 208.262878,113.358673 
	C238.028809,110.982430 261.880035,122.008018 280.115509,145.479141 
	C280.995209,146.611404 282.122040,147.774475 281.681732,149.620804 
	C278.159821,151.361099 275.956879,149.642365 273.754883,146.931503 
	C259.152924,128.955063 240.236694,119.553009 217.072617,118.762787 
	C216.837051,118.754745 216.591766,119.032310 216.069809,119.345039 
	C230.294113,126.283623 242.044052,135.813019 250.732162,149.234924 
	C248.111618,150.738831 246.230652,150.494965 244.056046,149.381134 
z"/>
<path fill="#000000" opacity="1.000000" stroke="none" 
	d="
M133.861191,247.142609 
	C147.964996,259.501007 163.874008,266.290985 182.515228,266.213654 
	C169.294434,258.891968 157.679047,249.916290 149.332733,236.710983 
	C153.231186,234.771652 155.551849,235.996323 157.835175,238.754944 
	C167.060867,249.901062 178.521362,257.883545 192.144592,262.880981 
	C197.275574,264.763184 202.052826,264.714752 207.140625,262.808319 
	C220.523285,257.793640 232.078613,250.245285 241.088104,239.056763 
	C243.258850,236.360992 245.512619,234.600357 249.889709,236.791824 
	C241.325989,249.708771 230.196136,259.182587 216.548782,266.103333 
	C226.437531,266.460907 235.858536,264.582214 244.788315,260.502716 
	C255.837860,255.454803 265.604797,248.611465 273.099548,238.895798 
	C275.286285,236.061050 277.648376,234.751526 281.048950,236.361343 
	C281.423706,238.316849 280.167145,239.363556 279.280640,240.498611 
	C260.261292,264.850494 235.331711,275.007141 204.701767,271.628632 
	C201.256088,271.248535 197.696487,271.258698 194.249390,271.634857 
	C163.374725,275.003906 138.447662,264.477570 119.465759,239.900101 
	C118.685646,238.889999 117.537216,237.963211 118.046722,236.203003 
	C121.154167,235.049820 123.532997,235.767334 125.730598,238.545334 
	C128.095734,241.535126 130.956024,244.133224 133.861191,247.142609 
z"/>
<path fill="#000000" opacity="1.000000" stroke="none" 
	d="
M192.393661,211.935455 
	C181.330322,205.318588 177.677505,192.478668 183.606644,182.079773 
	C189.383362,171.948212 203.119095,168.343292 214.252457,174.036865 
	C224.273071,179.161362 228.195587,192.139572 222.987793,202.938965 
	C218.103546,213.067429 205.107391,217.008224 192.393661,211.935455 
M193.942154,182.598694 
	C191.521194,189.819366 191.667603,197.017075 194.409393,204.092514 
	C195.860474,207.837173 198.154251,210.803055 202.716156,210.917633 
	C207.448074,211.036453 210.082886,208.248306 211.705521,204.287140 
	C214.534576,197.380844 214.351318,190.287094 212.393982,183.231705 
	C211.169937,178.819534 208.716812,175.051437 203.768661,174.604950 
	C198.719955,174.149399 195.928329,177.502060 193.942154,182.598694 
z"/>
<path fill="#000000" opacity="1.000000" stroke="none" 
	d="
M148.782959,172.086090 
	C153.847214,171.464600 158.541641,171.104355 162.943115,173.053223 
	C165.440765,174.159119 167.397491,173.242188 169.811447,171.861877 
	C170.898010,176.475357 170.426712,180.770477 170.052460,185.144928 
	C167.398758,185.177460 167.441971,183.016281 166.604553,181.789810 
	C163.468552,177.196747 159.499283,174.364563 153.641220,175.157181 
	C147.927719,175.930206 146.409592,180.375946 145.129944,184.971512 
	C143.627853,190.365891 144.170944,195.847122 144.649750,201.305969 
	C144.734726,202.274902 145.162231,203.235641 145.544876,204.152893 
	C147.394623,208.586868 150.596817,211.089890 155.550674,210.896042 
	C157.373764,210.824707 159.648254,210.828033 159.772964,208.395813 
	C159.992630,204.110992 161.801407,199.196106 156.257523,196.086304 
	C162.180664,196.086304 168.103790,196.086304 174.026917,196.086304 
	C169.780563,198.522171 170.148071,202.541183 170.449142,206.304993 
	C170.765076,210.254074 168.940659,212.069244 165.376114,212.959991 
	C160.317276,214.224167 155.214233,214.892044 150.068314,213.963242 
	C140.006470,212.147141 133.496414,205.327972 132.721085,196.072250 
	C131.790771,184.966064 137.391983,176.430389 148.782959,172.086090 
z"/>
<path fill="#000000" opacity="1.000000" stroke="none" 
	d="
M257.194824,210.567841 
	C258.401825,211.154419 259.270630,211.574661 260.139404,211.994904 
	C260.121124,212.261658 260.102844,212.528412 260.084564,212.795166 
	C253.502350,212.795166 246.920151,212.795166 240.337936,212.795166 
	C246.044434,210.571457 244.657043,205.550354 244.694809,201.113174 
	C244.752945,194.283478 244.757126,187.452286 244.673431,180.623077 
	C244.650574,178.757507 245.396072,176.322205 242.708313,175.571289 
	C240.266510,174.889084 237.954315,175.677048 236.376419,177.573990 
	C235.038055,179.182983 234.167847,181.181412 233.028091,183.113251 
	C229.290451,175.843735 231.347870,172.058945 238.969955,171.984573 
	C246.298584,171.913071 253.629349,171.933716 260.957947,172.019257 
	C268.486725,172.107132 268.502777,172.167053 268.310486,179.573639 
	C268.281708,180.683334 268.065186,181.788162 267.928040,182.958786 
	C265.345459,182.645950 265.948975,180.362045 265.046478,179.144394 
	C263.111206,176.533432 260.616943,174.830887 257.376709,175.547775 
	C254.025085,176.289307 255.403244,179.354797 255.362808,181.428467 
	C255.210220,189.255188 255.277542,197.086960 255.331421,204.916382 
	C255.344696,206.847595 254.820450,209.001846 257.194824,210.567841 
z"/>
</svg>